<?xml version="1.0" encoding="UTF-8" standalone="no"?>
<!-- Created with Inkscape (http://www.inkscape.org/) -->

<svg
   xmlns:dc="http://purl.org/dc/elements/1.1/"
   xmlns:cc="http://creativecommons.org/ns#"
   xmlns:rdf="http://www.w3.org/1999/02/22-rdf-syntax-ns#"
   xmlns:svg="http://www.w3.org/2000/svg"
   xmlns="http://www.w3.org/2000/svg"
   xmlns:sodipodi="http://sodipodi.sourceforge.net/DTD/sodipodi-0.dtd"
   xmlns:inkscape="http://www.inkscape.org/namespaces/inkscape"
   width="718.57141"
   height="259.14706"
   id="svg4411"
   version="1.1"
   inkscape:version="0.48.4 r9939"
   sodipodi:docname="toy_example.pdf">
  <defs
     id="defs4413" />
  <sodipodi:namedview
     id="base"
     pagecolor="#ffffff"
     bordercolor="#666666"
     borderopacity="1.0"
     inkscape:pageopacity="0.0"
     inkscape:pageshadow="2"
     inkscape:zoom="1.4"
     inkscape:cx="325.29323"
     inkscape:cy="184.73893"
     inkscape:document-units="px"
     inkscape:current-layer="layer1"
     showgrid="false"
     inkscape:window-width="1680"
     inkscape:window-height="988"
     inkscape:window-x="-8"
     inkscape:window-y="-8"
     inkscape:window-maximized="1"
     fit-margin-top="20"
     fit-margin-left="0"
     fit-margin-right="0"
     fit-margin-bottom="0" />
  <metadata
     id="metadata4416">
    <rdf:RDF>
      <cc:Work
         rdf:about="">
        <dc:format>image/svg+xml</dc:format>
        <dc:type
           rdf:resource="http://purl.org/dc/dcmitype/StillImage" />
        <dc:title></dc:title>
      </cc:Work>
    </rdf:RDF>
  </metadata>
  <g
     inkscape:label="Layer 1"
     inkscape:groupmode="layer"
     id="layer1"
     transform="translate(-19.285715,-151.07222)">
    <path
       inkscape:connector-curvature="0"
       id="path2844-1"
       style="opacity:0.81415926;fill:#0fb901;fill-opacity:1;fill-rule:nonzero;stroke:#4e9a06;stroke-width:3.92600012;stroke-linecap:butt;stroke-linejoin:miter;stroke-miterlimit:4;stroke-opacity:1;stroke-dasharray:none;display:inline"
       d="M 381.40441,388.26309 C 329.86514,388.03791 324.28796,383.6919 317.2462,379.58974 289.13025,363.21087 280.84622,335.04418 264.82859,292.54772 247.23073,245.85875 235.08333,184.9163 213.56182,184.9163 c -17.43151,0 -30.94953,59.09828 -48.54738,105.78725 -16.01763,42.49646 -25.55547,72.83377 -53.67142,89.21264 -7.23147,4.21267 -14.383943,8.35604 -69.889852,8.35604"
       sodipodi:nodetypes="csssssc" />
    <path
       inkscape:connector-curvature="0"
       id="path2844-1-7"
       style="opacity:0.80088495;fill:#f48a01;fill-opacity:1;stroke:#fc4106;stroke-width:3.95853472;stroke-linecap:butt;stroke-linejoin:miter;stroke-miterlimit:4;stroke-opacity:1;stroke-dasharray:none;display:inline"
       d="m 534.25481,388.24682 c -52.40069,-0.22514 -58.07109,-4.57046 -65.23055,-8.67197 -28.58587,-16.37627 -37.00836,-44.53847 -53.29371,-87.02817 -17.89199,-46.68154 -30.24242,-107.61429 -52.12364,-107.61429 -17.72286,0 -31.46682,59.08888 -49.3588,105.77042 -16.28534,42.48969 -25.9826,72.82218 -54.56848,89.19844 -7.35234,4.212 -14.62436,8.35471 -71.05799,8.35471"
       sodipodi:nodetypes="csssssc" />
    <path
       inkscape:connector-curvature="0"
       id="path2844-1-4"
       style="opacity:0.73008848;fill:#0f9fff;fill-opacity:1;stroke:#002aff;stroke-width:4.0697217;stroke-linecap:butt;stroke-linejoin:miter;stroke-miterlimit:4;stroke-opacity:1;stroke-dasharray:none;display:inline"
       d="m 695.52282,388.19124 c -55.41599,-0.22503 -61.41268,-4.56797 -68.98412,-8.66724 -30.2308,-16.36731 -39.13794,-44.51411 -56.3604,-86.98058 -18.92155,-46.65601 -31.98266,-107.55544 -55.12299,-107.55544 -18.7427,0 -33.27752,59.05657 -52.19906,105.71258 -17.22246,42.46646 -27.47772,72.78236 -57.70853,89.14967 -7.77541,4.20969 -15.46589,8.35014 -75.14689,8.35014"
       sodipodi:nodetypes="csssssc" />
    <text
       xml:space="preserve"
       style="font-size:40px;font-style:normal;font-weight:normal;line-height:125%;letter-spacing:0px;word-spacing:0px;fill:#000000;fill-opacity:1;stroke:none;font-family:Sans"
       x="195.86807"
       y="320.00159"
       id="text4959"
       sodipodi:linespacing="125%"><tspan
         sodipodi:role="line"
         id="tspan4961"
         x="195.86807"
         y="320.00159">A</tspan></text>
    <text
       xml:space="preserve"
       style="font-size:40px;font-style:normal;font-weight:normal;line-height:125%;letter-spacing:0px;word-spacing:0px;fill:#000000;fill-opacity:1;stroke:none;font-family:Sans"
       x="501.85825"
       y="322.19614"
       id="text4959-0"
       sodipodi:linespacing="125%"><tspan
         sodipodi:role="line"
         id="tspan4961-9"
         x="501.85825"
         y="322.19614">C</tspan></text>
    <text
       xml:space="preserve"
       style="font-size:40px;font-style:normal;font-weight:normal;line-height:125%;letter-spacing:0px;word-spacing:0px;fill:#000000;fill-opacity:1;stroke:none;font-family:Sans"
       x="349.36581"
       y="319.16571"
       id="text4959-4"
       sodipodi:linespacing="125%"><tspan
         sodipodi:role="line"
         id="tspan4961-8"
         x="349.36581"
         y="319.16571">B</tspan></text>
    <g
       id="g5024">
      <text
         inkscape:transform-center-y="-86.873119"
         inkscape:transform-center-x="25.253814"
         sodipodi:linespacing="125%"
         id="text4959-8"
         y="189.74019"
         x="277.24271"
         style="font-size:40px;font-style:normal;font-weight:normal;line-height:125%;letter-spacing:0px;word-spacing:0px;fill:#000000;fill-opacity:1;stroke:none;font-family:Sans"
         xml:space="preserve"><tspan
           style="font-size:36px;fill:#008080"
           y="189.74019"
           x="277.24271"
           id="tspan4961-2"
           sodipodi:role="line">x</tspan></text>
      <path
         inkscape:connector-curvature="0"
         id="path5020"
         d="m 284.86302,196.51668 c 0,147.37441 0,147.37441 0,147.37441"
         style="fill:none;stroke:#00ae00;stroke-width:1.1362617px;stroke-linecap:butt;stroke-linejoin:miter;stroke-opacity:1" />
      <path
         transform="matrix(1.15,0,0,1,-39.437502,0.17857143)"
         d="m 285.53572,340.75504 c 0,2.26831 -1.59898,4.10714 -3.57143,4.10714 -1.97244,0 -3.57142,-1.83883 -3.57142,-4.10714 0,-2.26832 1.59898,-4.10715 3.57142,-4.10715 1.97245,0 3.57143,1.83883 3.57143,4.10715 z"
         sodipodi:ry="4.1071429"
         sodipodi:rx="3.5714285"
         sodipodi:cy="340.75504"
         sodipodi:cx="281.96429"
         id="path5022"
         style="fill:#006d58;fill-opacity:1;stroke:none"
         sodipodi:type="arc" />
    </g>
    <rect
       style="fill:#ffffff;fill-opacity:1;fill-rule:nonzero;stroke:none"
       id="rect5070"
       width="718.57141"
       height="22.499998"
       x="19.285715"
       y="387.7193" />
  </g>
</svg>
